<svg width="120" height="120" viewBox="0 0 120 120" fill="none" xmlns="http://www.w3.org/2000/svg">
<circle cx="60" cy="60" r="60" fill="#0E5780"/>
<path d="M59.5 68C64.7467 68 69 64.1944 69 59.5C69 54.8056 64.7467 51 59.5 51C54.2533 51 50 54.8056 50 59.5C50 64.1944 54.2533 68 59.5 68Z" stroke="white" stroke-width="2" stroke-linecap="round" stroke-linejoin="round"/>
<path d="M81.3636 68.3636C80.9703 69.2548 80.853 70.2433 81.0268 71.2017C81.2006 72.1602 81.6575 73.0446 82.3386 73.7409L82.5159 73.9182C83.0653 74.467 83.5012 75.1187 83.7985 75.836C84.0959 76.5534 84.249 77.3223 84.249 78.0989C84.249 78.8754 84.0959 79.6443 83.7985 80.3617C83.5012 81.079 83.0653 81.7307 82.5159 82.2795C81.9671 82.8289 81.3154 83.2648 80.5981 83.5622C79.8807 83.8595 79.1118 84.0126 78.3352 84.0126C77.5587 84.0126 76.7898 83.8595 76.0724 83.5622C75.355 83.2648 74.7033 82.8289 74.1545 82.2795L73.9773 82.1023C73.2809 81.4211 72.3965 80.9642 71.4381 80.7904C70.4797 80.6167 69.4911 80.734 68.6 81.1273C67.7261 81.5018 66.9809 82.1237 66.4559 82.9164C65.931 83.709 65.6492 84.6379 65.6455 85.5886V86.0909C65.6455 87.6581 65.0229 89.1611 63.9147 90.2693C62.8066 91.3774 61.3036 92 59.7364 92C58.1692 92 56.6662 91.3774 55.558 90.2693C54.4498 89.1611 53.8273 87.6581 53.8273 86.0909V85.825C53.8044 84.8471 53.4879 83.8986 52.9188 83.103C52.3497 82.3073 51.5544 81.7013 50.6364 81.3636C49.7452 80.9703 48.7567 80.853 47.7983 81.0268C46.8398 81.2006 45.9554 81.6575 45.2591 82.3386L45.0818 82.5159C44.533 83.0653 43.8813 83.5012 43.164 83.7985C42.4466 84.0959 41.6777 84.249 40.9011 84.249C40.1246 84.249 39.3557 84.0959 38.6383 83.7985C37.921 83.5012 37.2693 83.0653 36.7205 82.5159C36.171 81.9671 35.7352 81.3154 35.4378 80.5981C35.1405 79.8807 34.9874 79.1118 34.9874 78.3352C34.9874 77.5587 35.1405 76.7898 35.4378 76.0724C35.7352 75.355 36.171 74.7033 36.7205 74.1545L36.8977 73.9773C37.5789 73.2809 38.0358 72.3965 38.2096 71.4381C38.3833 70.4797 38.266 69.4911 37.8727 68.6C37.4982 67.7261 36.8763 66.9809 36.0836 66.4559C35.291 65.931 34.3621 65.6492 33.4114 65.6455H32.9091C31.3419 65.6455 29.8389 65.0229 28.7307 63.9147C27.6226 62.8066 27 61.3036 27 59.7364C27 58.1692 27.6226 56.6662 28.7307 55.558C29.8389 54.4498 31.3419 53.8273 32.9091 53.8273H33.175C34.1529 53.8044 35.1014 53.4879 35.897 52.9188C36.6927 52.3497 37.2987 51.5544 37.6364 50.6364C38.0297 49.7452 38.147 48.7567 37.9732 47.7983C37.7994 46.8398 37.3425 45.9554 36.6614 45.2591L36.4841 45.0818C35.9347 44.533 35.4988 43.8813 35.2015 43.164C34.9041 42.4466 34.751 41.6777 34.751 40.9011C34.751 40.1246 34.9041 39.3557 35.2015 38.6383C35.4988 37.921 35.9347 37.2693 36.4841 36.7205C37.0329 36.171 37.6846 35.7352 38.4019 35.4378C39.1193 35.1405 39.8882 34.9874 40.6648 34.9874C41.4413 34.9874 42.2102 35.1405 42.9276 35.4378C43.645 35.7352 44.2967 36.171 44.8455 36.7205L45.0227 36.8977C45.7191 37.5789 46.6035 38.0358 47.5619 38.2096C48.5203 38.3833 49.5089 38.266 50.4 37.8727H50.6364C51.5102 37.4982 52.2555 36.8763 52.7805 36.0836C53.3054 35.291 53.5871 34.3621 53.5909 33.4114V32.9091C53.5909 31.3419 54.2135 29.8389 55.3216 28.7307C56.4298 27.6226 57.9328 27 59.5 27C61.0672 27 62.5702 27.6226 63.6784 28.7307C64.7865 29.8389 65.4091 31.3419 65.4091 32.9091V33.175C65.4129 34.1257 65.6946 35.0546 66.2195 35.8473C66.7445 36.64 67.4898 37.2618 68.3636 37.6364C69.2548 38.0297 70.2433 38.147 71.2017 37.9732C72.1602 37.7994 73.0446 37.3425 73.7409 36.6614L73.9182 36.4841C74.467 35.9347 75.1187 35.4988 75.836 35.2015C76.5534 34.9041 77.3223 34.751 78.0989 34.751C78.8754 34.751 79.6443 34.9041 80.3617 35.2015C81.079 35.4988 81.7307 35.9347 82.2795 36.4841C82.8289 37.0329 83.2648 37.6846 83.5622 38.4019C83.8595 39.1193 84.0126 39.8882 84.0126 40.6648C84.0126 41.4413 83.8595 42.2102 83.5622 42.9276C83.2648 43.645 82.8289 44.2967 82.2795 44.8455L82.1023 45.0227C81.4211 45.7191 80.9642 46.6035 80.7904 47.5619C80.6167 48.5203 80.734 49.5089 81.1273 50.4V50.6364C81.5018 51.5102 82.1237 52.2555 82.9164 52.7805C83.709 53.3054 84.6379 53.5871 85.5886 53.5909H86.0909C87.6581 53.5909 89.1611 54.2135 90.2693 55.3216C91.3774 56.4298 92 57.9328 92 59.5C92 61.0672 91.3774 62.5702 90.2693 63.6784C89.1611 64.7865 87.6581 65.4091 86.0909 65.4091H85.825C84.8743 65.4129 83.9454 65.6946 83.1527 66.2195C82.36 66.7445 81.7382 67.4898 81.3636 68.3636V68.3636Z" stroke="white" stroke-width="2" stroke-linecap="round" stroke-linejoin="round"/>
</svg>
