<svg width="120" height="120" viewBox="0 0 120 120" fill="none" xmlns="http://www.w3.org/2000/svg">
<circle cx="60" cy="60" r="60" fill="#0E5780"/>
<path d="M59.5 80C70.8218 80 80 70.8218 80 59.5C80 48.1782 70.8218 39 59.5 39C48.1782 39 39 48.1782 39 59.5C39 70.8218 48.1782 80 59.5 80Z" stroke="white" stroke-width="2" stroke-linecap="round" stroke-linejoin="round"/>
<path d="M60 51V60.3333L64 65" stroke="white" stroke-width="2" stroke-linecap="round" stroke-linejoin="round"/>
<path d="M47.0276 43.6932L47.9945 32.3773C48.1185 30.9091 48.7512 29.5436 49.7683 28.5487C50.7854 27.5538 52.1134 27.0014 53.4917 27H65.5083C66.8914 26.994 68.2262 27.5431 69.2492 28.5387C70.2721 29.5343 70.9087 30.9041 71.0331 32.3773L72 43.6932M71.9448 75.3068L70.9779 86.6227C70.8534 88.096 70.2168 89.4657 69.1939 90.4613C68.171 91.4569 66.8361 92.006 65.453 92H53.4917C52.1086 92.006 50.7738 91.4569 49.7508 90.4613C48.7279 89.4657 48.0913 88.096 47.9669 86.6227L47 75.3068H71.9448Z" stroke="white" stroke-width="2" stroke-linecap="round" stroke-linejoin="round"/>
</svg>
