<svg width="120" height="120" viewBox="0 0 120 120" fill="none" xmlns="http://www.w3.org/2000/svg">
<circle cx="60" cy="60" r="60" fill="#0E5780"/>
<path d="M60 90C76.5685 90 90 76.5685 90 60C90 43.4315 76.5685 30 60 30C43.4315 30 30 43.4315 30 60C30 76.5685 43.4315 90 60 90Z" stroke="white" stroke-width="2" stroke-linecap="round" stroke-linejoin="round"/>
<path d="M30 60H90" stroke="white" stroke-width="2" stroke-linecap="round" stroke-linejoin="round"/>
<path d="M60 30C67.5038 38.2151 71.7683 48.8761 72 60C71.7683 71.1239 67.5038 81.7849 60 90C52.4962 81.7849 48.2317 71.1239 48 60C48.2317 48.8761 52.4962 38.2151 60 30V30Z" stroke="white" stroke-width="2" stroke-linecap="round" stroke-linejoin="round"/>
</svg>
